<svg width="58" height="45" viewBox="0 0 58 45" fill="none" xmlns="http://www.w3.org/2000/svg">
<path d="M23.5192 0.390381C20.0742 2.57478 0.5 13.9649 0.5 29.2556C0.5 34.5606 8.01648 41.2698 13.1841 44.3904L26.1813 31.128L20.0742 26.2911C18.0385 24.1067 15.533 22.2344 15.533 18.1776C15.533 12.2485 20.3874 6.31946 25.7115 1.95066L23.5192 0.390381ZM54.8379 0.390381C51.3929 2.57478 31.8187 13.9649 31.8187 29.2556C31.8187 34.5606 39.3352 41.2698 44.5028 44.3904L57.5 31.128L51.3929 26.2911C49.3571 24.1067 46.8517 22.2344 46.8517 18.1776C46.8517 12.2485 51.706 6.31946 57.0302 1.95066L54.8379 0.390381Z" fill="url(#paint0_linear_333_3842)"/>
<defs>
<linearGradient id="paint0_linear_333_3842" x1="29.2782" y1="-3.47078" x2="29.2782" y2="118.452" gradientUnits="userSpaceOnUse">
<stop stop-color="#D5BE7E"/>
<stop offset="1" stop-color="#BDA971"/>
</linearGradient>
</defs>
</svg>
